:SAMPLES-PER-SECOND 30
:FULLY-SPECIFIED
:DEGREES
449
root  -55.0353 5.713 -20.7839 150.959 -62.5229 -157.327
RightUpLeg  -82.0809 -10.5948 4.66837
RightLeg  161.373 8.12209 -3.05024
RightFoot  -57.2842 5.91493 11.4199
RightToes  5.65471 0.0113279 0.0541115
Spine  28.0392 1.97911 4.63934
Spine1  44.8803 3.21522 6.89136
HEad  -62.7782 -2.52754 -4.30345
LeftShoulder1  -1.94126e-019 -3.10601e-018 -2.51263e-017
LeftArm  36.7139 -66.1679 -120.795
LeftForeArm  46.3708 -5.32293 -0.908518
LeftHand  -0.454582 -2.2217 7.13551
RightShoulder  -4.96962e-017 0 -2.36833e-017
RightArm  6.74463 73.1999 107.202
RightForeArm  61.735 8.14517 1.37119
RightHand  -0.391552 -1.37869 -11.2287
LeftUpLeg  -87.1897 17.5967 26.8989
LeftLeg  164.996 3.46947 -1.16971
LeftFoot  -54.0075 -3.53256 -6.76414
LeftToes  3.85529 2.03064e-006 1.83538e-008
450
root  -55.0382 5.68233 -20.7948 149.937 -62.0444 -156.607
RightUpLeg  -81.8104 -9.8758 5.17161
RightLeg  161.323 8.67489 -3.28276
RightFoot  -56.9484 5.98406 11.6234
RightToes  5.8316 0.0122092 0.0546391
Spine  28.2874 1.96514 4.773
Spine1  45.2842 2.9196 7.18077
HEad  -64.1029 -3.86891 -4.62594
LeftShoulder1  -1.94126e-019 -3.10601e-018 -2.51263e-017
LeftArm  38.1358 -67.1536 -124.011
LeftForeArm  48.2771 -3.29719 -0.549977
LeftHand  -0.446567 -1.7021 7.48688
RightShoulder  -4.96962e-017 0 -2.36833e-017
RightArm  7.15152 74.1292 110.016
RightForeArm  65.7314 5.14727 0.847535
RightHand  -0.318225 -2.47751 -12.3841
LeftUpLeg  -86.808 16.8395 28.0237
LeftLeg  165.27 3.20442 -1.06329
LeftFoot  -54.0783 -3.8287 -7.33212
LeftToes  4.92345 2.03064e-006 1.83538e-008
451
root  -54.9076 5.86361 -20.7789 149.518 -61.5184 -155.606
RightUpLeg  -82.8474 -9.28537 6.5101
RightLeg  160.453 9.34539 -3.71924
RightFoot  -55.6539 5.80964 11.5974
RightToes  5.52558 0.0130628 0.0528642
Spine  28.2017 2.01298 4.92683
Spine1  45.1347 2.70902 7.58284
HEad  -65.4514 -5.42572 -4.32811
LeftShoulder1  -1.94126e-019 -3.10601e-018 -2.51263e-017
LeftArm  38.7047 -67.3823 -124.756
LeftForeArm  50.7387 -3.58018 -0.598049
LeftHand  -0.396004 -1.5504 6.79166
RightShoulder  -4.96962e-017 0 -2.36833e-017
RightArm  4.8191 74.0417 110.423
RightForeArm  67.0669 4.03141 0.652354
RightHand  -0.160112 -4.23521 -14.8778
LeftUpLeg  -87.5595 16.5862 28.5651
LeftLeg  164.731 2.57898 -0.882371
LeftFoot  -52.958 -3.90237 -7.66344
LeftToes  3.93014 2.03064e-006 1.83538e-008
452
root  -54.6758 6.15526 -20.756 151.018 -60.6657 -155.402
RightUpLeg  -85.4453 -8.19951 8.34281
RightLeg  159.135 10.0116 -4.27151
RightFoot  -53.7357 5.50919 11.4664
RightToes  5.19266 0.0138889 0.0496505
Spine  27.4049 2.33955 4.91744
Spine1  43.8325 2.99263 7.91241
HEad  -66.8726 -7.25573 -3.4593
LeftShoulder1  -1.94126e-019 -3.10601e-018 -2.51263e-017
LeftArm  39.2401 -67.1799 -122.334
LeftForeArm  49.5549 -5.60833 -0.960181
LeftHand  -0.311633 -3.26189 4.42658
RightShoulder  -4.96962e-017 0 -2.36833e-017
RightArm  2.10383 73.0616 108.591
RightForeArm  66.8842 4.04219 0.652722
RightHand  -0.233488 -3.59131 -14.3916
LeftUpLeg  -89.0005 17.6359 28.8743
LeftLeg  163.634 2.22104 -0.807217
LeftFoot  -50.9196 -3.60725 -7.40639
LeftToes  -2.04331 2.03064e-006 1.83538e-008
453
root  -54.4693 6.48797 -20.7066 152.671 -60.1472 -155.431
RightUpLeg  -87.5083 -7.54086 9.37999
RightLeg  157.756 10.1319 -4.6185
RightFoot  -52.1595 5.15686 11.129
RightToes  4.54673 0.0146881 0.0434245
Spine  26.6806 2.61519 4.83922
Spine1  42.7321 3.45065 7.97313
HEad  -68.9491 -9.60549 -1.93897
LeftShoulder1  -1.94126e-019 -3.10601e-018 -2.51263e-017
LeftArm  40.6661 -67.3385 -120.356
LeftForeArm  46.3214 -7.59887 -1.3205
LeftHand  -0.230607 -4.43206 3.01169
RightShoulder  -4.96962e-017 0 -2.36833e-017
RightArm  1.51449 72.1333 105.986
RightForeArm  65.4089 5.19177 0.856542
RightHand  -0.298319 -2.98854 -13.9971
LeftUpLeg  -90.4887 18.4635 28.1229
LeftLeg  162.452 1.40542 -0.542708
LeftFoot  -49.298 -3.42554 -7.2953
LeftToes  -5.00165 2.03064e-006 1.83538e-008
454
root  -54.3357 6.77824 -20.6686 153.699 -59.8674 -155.46
RightUpLeg  -88.4969 -7.1082 9.88195
RightLeg  156.644 10.1808 -4.88424
RightFoot  -50.9524 4.89978 10.8775
RightToes  3.63316 0.0154606 0.0346402
Spine  26.2167 2.79109 4.85167
Spine1  42.089 3.81179 8.04947
HEad  -71.2162 -12.7264 -0.371904
LeftShoulder1  -1.94126e-019 -3.10601e-018 -2.51263e-017
LeftArm  41.0875 -67.3684 -119.259
LeftForeArm  44.9594 -9.11715 -1.59221
LeftHand  -0.249721 -4.39988 3.24634
RightShoulder  -4.96962e-017 0 -2.36833e-017
RightArm  0.667538 71.6488 103.27
RightForeArm  65.3749 6.25206 1.04079
RightHand  -0.403692 -1.94554 -13.4242
LeftUpLeg  -91.1759 18.6466 27.3646
LeftLeg  161.47 0.48308 -0.193896
LeftFoot  -48.3611 -3.407 -7.41744
LeftToes  -6.61142 2.03064e-006 1.83538e-008
455
root  -54.2 6.96523 -20.6472 154.911 -59.3162 -155.182
RightUpLeg  -90.3155 -6.2052 10.9289
RightLeg  155.765 10.6235 -5.30811
RightFoot  -49.8274 4.77333 10.8717
RightToes  4.01526 0.0162071 0.0383109
Spine  25.3146 3.09017 4.88945
Spine1  40.7666 4.41735 8.24774
HEad  -73.5708 -16.2656 1.34346
LeftShoulder1  -1.94126e-019 -3.10601e-018 -2.51263e-017
LeftArm  41.166 -66.8774 -118.213
LeftForeArm  43.7116 -10.0347 -1.74978
LeftHand  -0.356573 -3.52854 4.89699
RightShoulder  -4.96962e-017 0 -2.36833e-017
RightArm  -0.103097 70.7482 99.8434
RightForeArm  63.2577 7.68629 1.29815
RightHand  -0.40436 -1.60691 -12.2763
LeftUpLeg  -92.4235 19.1935 27.1959
LeftLeg  160.815 -0.191761 0.0843393
LeftFoot  -47.4545 -3.37576 -7.50947
LeftToes  -8.38534 2.03064e-006 1.83538e-008
